HIERARCHY
ROOT root
{
  OFFSET 0 98.6856 0
  CHANNELS 6 Xposition Yposition Zposition Zrotation Xrotation Yrotation
  JOINT torso_1
  {
    OFFSET 0 5.37224 -1.21793
    CHANNELS 6 Xposition Yposition Zposition Zrotation Xrotation Yrotation
    JOINT torso_2
    {
      OFFSET 0 5.94127 1.13336
      CHANNELS 6 Xposition Yposition Zposition Zrotation Xrotation Yrotation
      JOINT torso_3
      {
        OFFSET -1.08535e-17 6.33601 0.121658
        CHANNELS 6 Xposition Yposition Zposition Zrotation Xrotation Yrotation
        JOINT torso_4
        {
          OFFSET -1.16841e-17 6.88189 -0.46916
          CHANNELS 6 Xposition Yposition Zposition Zrotation Xrotation Yrotation
          JOINT torso_5
          {
            OFFSET -2.08699e-17 8.0451 -1.59297
            CHANNELS 6 Xposition Yposition Zposition Zrotation Xrotation Yrotation
            JOINT torso_6
            {
              OFFSET -2.67949e-17 10.0463 -0.967353
              CHANNELS 6 Xposition Yposition Zposition Zrotation Xrotation Yrotation
              JOINT torso_7
              {
                OFFSET -3.07187e-17 11.1612 1.66806
                CHANNELS 6 Xposition Yposition Zposition Zrotation Xrotation Yrotation
                JOINT neck_1
                {
                  OFFSET -1.36661e-17 5.06312 0.756688
                  CHANNELS 6 Xposition Yposition Zposition Zrotation Xrotation Yrotation
                  JOINT neck_2
                  {
                    OFFSET -1.91632e-17 5.09976 0.446172
                    CHANNELS 6 Xposition Yposition Zposition Zrotation Xrotation Yrotation
                    JOINT head
                    {
                      OFFSET -2.12574e-17 5.10962 0.809285
                      CHANNELS 6 Xposition Yposition Zposition Zrotation Xrotation Yrotation
                      End Site
                      {
                        OFFSET 0 0.1 0
                      }
                    }
                  }
                }
                JOINT l_shoulder
                {
                  OFFSET 1.30426 -8.04703 7.96922
                  CHANNELS 6 Xposition Yposition Zposition Zrotation Xrotation Yrotation
                  JOINT l_up_arm
                  {
                    OFFSET 13.7035 3.43734 -3.45766
                    CHANNELS 6 Xposition Yposition Zposition Zrotation Xrotation Yrotation
                    JOINT l_low_arm
                    {
                      OFFSET 30.8964 0.0632652 0.14496
                      CHANNELS 6 Xposition Yposition Zposition Zrotation Xrotation Yrotation
                      JOINT l_hand
                      {
                        OFFSET 25.6348 0.0524902 0.120274
                        CHANNELS 6 Xposition Yposition Zposition Zrotation Xrotation Yrotation
                        End Site
                        {
                          OFFSET 0.1 0 0
                        }
                      }
                    }
                  }
                }
                JOINT r_shoulder
                {
                  OFFSET -1.30426 -8.04702 7.96912
                  CHANNELS 6 Xposition Yposition Zposition Zrotation Xrotation Yrotation
                  JOINT r_up_arm
                  {
                    OFFSET -13.7035 3.43734 -3.45766
                    CHANNELS 6 Xposition Yposition Zposition Zrotation Xrotation Yrotation
                    JOINT r_low_arm
                    {
                      OFFSET -30.8964 0.0632652 0.14496
                      CHANNELS 6 Xposition Yposition Zposition Zrotation Xrotation Yrotation
                      JOINT r_hand
                      {
                        OFFSET -25.6348 0.0524901 0.120274
                        CHANNELS 6 Xposition Yposition Zposition Zrotation Xrotation Yrotation
                        End Site
                        {
                          OFFSET -0.1 0 0
                        }
                      }
                    }
                  }
                }
              }
            }
          }
        }
      }
    }
  }
  JOINT l_up_leg
  {
    OFFSET 9.77065 -4.44866 2.1502
    CHANNELS 6 Xposition Yposition Zposition Zrotation Xrotation Yrotation
    JOINT l_low_leg
    {
      OFFSET -0.901622 -41.0132 -0.693059
      CHANNELS 6 Xposition Yposition Zposition Zrotation Xrotation Yrotation
      JOINT l_foot
      {
        OFFSET -2.46068 -42.7371 -6.39839
        CHANNELS 6 Xposition Yposition Zposition Zrotation Xrotation Yrotation
        JOINT l_toes
        {
          OFFSET 0.82413 -10.4558 13.2182
          CHANNELS 6 Xposition Yposition Zposition Zrotation Xrotation Yrotation
          End Site
          {
            OFFSET 0 0 0.1
          }
        }
      }
    }
  }
  JOINT r_up_leg
  {
    OFFSET -9.77065 -4.44866 2.1502
    CHANNELS 6 Xposition Yposition Zposition Zrotation Xrotation Yrotation
    JOINT r_low_leg
    {
      OFFSET 0.901622 -41.0132 -0.693059
      CHANNELS 6 Xposition Yposition Zposition Zrotation Xrotation Yrotation
      JOINT r_foot
      {
        OFFSET 2.46068 -42.7371 -6.39839
        CHANNELS 6 Xposition Yposition Zposition Zrotation Xrotation Yrotation
        JOINT r_toes
        {
          OFFSET -0.82413 -10.4558 13.2182
          CHANNELS 6 Xposition Yposition Zposition Zrotation Xrotation Yrotation
          End Site
          {
            OFFSET 0 0 0.1
          }
        }
      }
    }
  }
}
MOTION
Frames: 6
Frame Time: 0.02
-36.639 85.7791 1239.85 -14.0947 -18.3931 179.889 0 5.37224 -1.21793 -3.45435 6.73267 3.72511 0 5.94127 1.13336 -3.83181 4.95867 3.6289 -1.08535e-17 6.33601 0.121658 -3.27922 4.86997 3.56675 -1.16841e-17 6.88189 -0.46916 -2.66229 4.1917 3.79811 -2.08699e-17 8.0451 -1.59297 -1.05997 3.63409 4.33554 -2.67949e-17 10.0463 -0.967353 1.49592 3.51435 4.12502 -3.07187e-17 11.1612 1.66806 0.0146737 0.0807679 -0.0120387 -1.36661e-17 5.06312 0.756688 0.137666 3.05912 -8.17496 -1.91632e-17 5.09976 0.446172 3.03784 -13.1281 -3.72086 -2.12574e-17 5.10962 0.809285 -5.72139 -17.6994 -10.3423 1.30426 -8.04703 7.96922 8.73067 2.36407 2.02633 13.7035 3.43734 -3.45766 -83.3921 24.1984 18.3229 30.8964 0.0632652 0.14496 10.6937 -6.50198 -63.101 25.6348 0.0524902 0.120274 -4.99885 -27.773 -1.40344 -1.30426 -8.04702 7.96912 -10.2207 1.29971 -9.28547 -13.7035 3.43734 -3.45766 57.268 52.9271 32.1053 -30.8964 0.0632652 0.14496 -11.848 -14.0343 100.332 -25.6348 0.0524901 0.120274 1.13228 -39.9064 6.34522 9.77065 -4.44866 2.1502 -17.5155 -58.6001 -29.9977 -0.901622 -41.0132 -0.693059 -61.4418 73.9778 46.5365 -2.46068 -42.7371 -6.39839 -0.234702 -7.97462 15.9802 0.82413 -10.4558 13.2182 4.96962e-17 -7.95139e-16 1.2424e-17 -9.77065 -4.44866 2.1502 3.04022 9.14003 35.4679 0.901622 -41.0132 -0.693059 2.73325 10.1512 -0.0651262 2.46068 -42.7371 -6.39839 -1.16764 4.61952 -14.6326 -0.82413 -10.4558 13.2182 -5.96354e-16 -5.59082e-16 -1.27471e-14 
-36.7882 86.7083 1232.52 -14.7528 -18.7751 179.399 0 5.37224 -1.21793 -3.83172 5.87246 4.06431 0 5.94127 1.13336 -4.14695 4.37796 3.86352 -1.08535e-17 6.33601 0.121658 -3.54497 4.47207 3.79323 -1.16841e-17 6.88189 -0.46916 -2.89418 4.2119 4.00433 -2.08699e-17 8.0451 -1.59297 -1.20485 3.83371 4.56425 -2.67949e-17 10.0463 -0.967353 1.48556 3.75289 4.33544 -3.07187e-17 11.1612 1.66806 0.0201169 0.0813792 -0.0139403 -1.36661e-17 5.06312 0.756688 0.0167444 3.07973 -9.82459 -1.91632e-17 5.09976 0.446172 3.64297 -13.1312 -4.53023 -2.12574e-17 5.10962 0.809285 -4.75508 -17.243 -9.80164 1.30426 -8.04703 7.96922 7.99807 2.07709 1.88002 13.7035 3.43734 -3.45766 -81.6503 24.9168 18.9317 30.8964 0.0632652 0.14496 10.7953 -6.70308 -64.1741 25.6348 0.0524902 0.120274 -4.83261 -28.3962 -2.48507 -1.30426 -8.04702 7.96912 -11.2282 0.730045 -9.69353 -13.7035 3.43734 -3.45766 59.7725 52.1274 30.0567 -30.8964 0.0632652 0.14496 -11.8457 -14.0467 100.393 -25.6348 0.0524901 0.120274 1.31573 -39.5343 5.28038 9.77065 -4.44866 2.1502 -21.9691 -60.4997 -34.1788 -0.901622 -41.0132 -0.693059 -44.3265 70.0265 30.3483 -2.46068 -42.7371 -6.39839 0.317908 -9.29768 16.0748 0.82413 -10.4558 13.2182 4.96962e-17 -7.95139e-16 1.2424e-17 -9.77065 -4.44866 2.1502 1.05481 11.7351 33.2518 0.901622 -41.0132 -0.693059 1.28717 4.80544 0.0299115 2.46068 -42.7371 -6.39839 7.7299 22.8491 -15.5507 -0.82413 -10.4558 13.2182 9.29318e-15 -1.77664e-15 -1.3977e-14 
-37.6578 87.6381 1226.02 -15.3668 -18.9012 179.291 0 5.37224 -1.21793 -4.13077 4.94776 4.31559 0 5.94127 1.13336 -4.37988 3.76192 4.03737 -1.08535e-17 6.33601 0.121658 -3.74055 4.09318 3.9615 -1.16841e-17 6.88189 -0.46916 -3.07153 4.3427 4.14461 -2.08699e-17 8.0451 -1.59297 -1.3383 4.19395 4.72245 -2.67949e-17 10.0463 -0.967353 1.44567 4.16825 4.50161 -3.07187e-17 11.1612 1.66806 0.0261963 0.0747216 -0.0137204 -1.36661e-17 5.06312 0.756688 -0.0517723 3.34838 -10.8654 -1.91632e-17 5.09976 0.446172 3.94837 -13.15 -5.06296 -2.12574e-17 5.10962 0.809285 -4.08105 -16.9058 -10.02 1.30426 -8.04703 7.96922 7.86016 1.49349 1.91621 13.7035 3.43734 -3.45766 -81.3985 26.0322 18.8956 30.8964 0.0632652 0.14496 10.8638 -6.84399 -64.9202 25.6348 0.0524902 0.120274 -4.57263 -28.2273 -3.46199 -1.30426 -8.04702 7.96912 -12.0225 0.102429 -9.91335 -13.7035 3.43734 -3.45766 63.3825 51.3857 27.0619 -30.8964 0.0632652 0.14496 -11.913 -13.6384 98.384 -25.6348 0.0524901 0.120274 1.06072 -38.9659 3.94233 9.77065 -4.44866 2.1502 -26.3408 -60.6995 -38.0016 -0.901622 -41.0132 -0.693059 -31.7335 64.0645 18.8598 -2.46068 -42.7371 -6.39839 0.785288 -10.5554 16.1194 0.82413 -10.4558 13.2182 4.96962e-17 -7.95139e-16 1.2424e-17 -9.77065 -4.44866 2.1502 -0.496124 14.4048 30.991 0.901622 -41.0132 -0.693059 0.272666 1.01797 0.0153468 2.46068 -42.7371 -6.39839 14.1208 35.2147 -18.2493 -0.82413 -10.4558 13.2182 -3.77691e-15 -4.22417e-16 -1.26104e-14 
-39.0598 88.3831 1220.49 -15.7257 -19.8971 -179.721 0 5.37224 -1.21793 -4.416 3.9564 4.39757 0 5.94127 1.13336 -4.57211 3.12276 4.04958 -1.08535e-17 6.33601 0.121658 -3.87505 3.68683 3.97486 -1.16841e-17 6.88189 -0.46916 -3.16993 4.43878 4.12908 -2.08699e-17 8.0451 -1.59297 -1.41995 4.53307 4.70776 -2.67949e-17 10.0463 -0.967353 1.38886 4.57886 4.48945 -3.07187e-17 11.1612 1.66806 0.0301055 0.0668131 -0.0144651 -1.36661e-17 5.06312 0.756688 -0.217905 3.06493 -12.4171 -1.91632e-17 5.09976 0.446172 4.34785 -13.3131 -5.82778 -2.12574e-17 5.10962 0.809285 -3.28557 -16.2448 -9.55406 1.30426 -8.04703 7.96922 7.2671 1.02351 1.83183 13.7035 3.43734 -3.45766 -81.4198 27.3508 19.0645 30.8964 0.0632652 0.14496 11.1516 -7.49516 -68.3125 25.6348 0.0524902 0.120274 -3.61476 -27.7291 -2.59618 -1.30426 -8.04702 7.96912 -12.5407 -0.341417 -9.94052 -13.7035 3.43734 -3.45766 67.7773 50.5746 22.5156 -30.8964 0.0632652 0.14496 -11.9898 -12.9808 95.175 -25.6348 0.0524901 0.120274 0.606618 -39.2916 3.06183 9.77065 -4.44866 2.1502 -30.342 -60.3172 -40.7991 -0.901622 -41.0132 -0.693059 -23.5416 57.1865 11.8396 -2.46068 -42.7371 -6.39839 0.84794 -12.2273 16.179 0.82413 -10.4558 13.2182 4.47266e-16 -7.82715e-16 3.05504e-33 -9.77065 -4.44866 2.1502 -1.20987 16.3128 28.6745 0.901622 -41.0132 -0.693059 0.121171 0.452264 0.00741647 2.46068 -42.7371 -6.39839 15.0116 35.3721 -18.7664 -0.82413 -10.4558 13.2182 1.80397e-14 -2.14936e-15 -1.43498e-14 
-40.1435 88.978 1215.1 -14.5258 -20.267 -178.086 0 5.37224 -1.21793 -4.29812 3.59986 4.37469 0 5.94127 1.13336 -4.41923 3.05671 4.00887 -1.08535e-17 6.33601 0.121658 -3.72373 3.58367 3.95629 -1.16841e-17 6.88189 -0.46916 -3.05538 4.41862 4.09424 -2.08699e-17 8.0451 -1.59297 -1.36345 4.47658 4.64002 -2.67949e-17 10.0463 -0.967353 1.30058 4.52376 4.36819 -3.07187e-17 11.1612 1.66806 0.0292683 0.0705917 -0.011627 -1.36661e-17 5.06312 0.756688 -0.426744 2.88395 -13.7051 -1.91632e-17 5.09976 0.446172 4.64184 -13.1967 -6.36535 -2.12574e-17 5.10962 0.809285 -2.38606 -15.9785 -9.31409 1.30426 -8.04703 7.96922 6.37212 0.906108 1.67145 13.7035 3.43734 -3.45766 -81.0525 28.4772 17.9162 30.8964 0.0632652 0.14496 11.3125 -7.91226 -70.4437 25.6348 0.0524902 0.120274 -3.69317 -27.269 -2.90976 -1.30426 -8.04702 7.96912 -12.4127 -0.374524 -9.31062 -13.7035 3.43734 -3.45766 71.4358 49.2274 17.5152 -30.8964 0.0632652 0.14496 -12.0333 -12.0765 90.8005 -25.6348 0.0524901 0.120274 0.223073 -40.5361 2.74931 9.77065 -4.44866 2.1502 -29.5622 -58.9716 -38.2606 -0.901622 -41.0132 -0.693059 -18.7963 51.2198 8.09566 -2.46068 -42.7371 -6.39839 0.93137 -13.8563 16.1585 0.82413 -10.4558 13.2182 4.47266e-16 -7.82715e-16 3.05504e-33 -9.77065 -4.44866 2.1502 0.0215871 17.8042 26.7095 0.901622 -41.0132 -0.693059 0.17624 0.65787 0.0104717 2.46068 -42.7371 -6.39839 15.6313 35.8973 -19.0967 -0.82413 -10.4558 13.2182 -1.67973e-14 9.19379e-16 -1.12189e-14 
-41.0557 89.0232 1209.56 -12.1555 -20.1129 -176.09 0 5.37224 -1.21793 -3.87248 3.20442 4.19969 0 5.94127 1.13336 -3.97678 3.0312 3.83727 -1.08535e-17 6.33601 0.121658 -3.33435 3.57036 3.81441 -1.16841e-17 6.88189 -0.46916 -2.75011 4.54598 3.92701 -2.08699e-17 8.0451 -1.59297 -1.19802 4.60897 4.42271 -2.67949e-17 10.0463 -0.967353 1.20643 4.7397 4.11819 -3.07187e-17 11.1612 1.66806 0.0275478 0.070769 -0.00377265 -1.36661e-17 5.06312 0.756688 -0.583975 2.68259 -14.4426 -1.91632e-17 5.09976 0.446172 4.94046 -12.9737 -6.60123 -2.12574e-17 5.10962 0.809285 -1.21653 -16.2227 -8.73198 1.30426 -8.04703 7.96922 5.79014 0.731456 1.72141 13.7035 3.43734 -3.45766 -81.57 29.5633 16.5215 30.8964 0.0632652 0.14496 11.4869 -8.4266 -73.0346 25.6348 0.0524902 0.120274 -3.57436 -26.8811 -3.11544 -1.30426 -8.04702 7.96912 -11.7326 -0.452873 -8.32639 -13.7035 3.43734 -3.45766 74.2817 48.3664 13.3583 -30.8964 0.0632652 0.14496 -11.9936 -11.0053 85.6392 -25.6348 0.0524901 0.120274 -1.17995 -41.0764 1.91853 9.77065 -4.44866 2.1502 -26.7234 -57.5748 -33.5859 -0.901622 -41.0132 -0.693059 -17.2051 48.7508 6.92175 -2.46068 -42.7371 -6.39839 1.41722 -15.2378 16.1124 0.82413 -10.4558 13.2182 4.96962e-17 -7.95139e-16 1.2424e-17 -9.77065 -4.44866 2.1502 2.6266 18.8996 23.5152 0.901622 -41.0132 -0.693059 0.527742 1.97082 0.0253253 2.46068 -42.7371 -6.39839 16.3058 36.7106 -19.5448 -0.82413 -10.4558 13.2182 -2.98177e-15 -4.5969e-16 -1.26353e-14 
